<svg width="200" height="200" viewBox="0 0 200 200" fill="none" xmlns="http://www.w3.org/2000/svg">
<g clip-path="url(#clip0_5966_13451)">
<path d="M80.3669 87.126C81.1421 86.1342 81.9207 85.1451 82.7025 84.1591C84.6979 81.6327 86.7605 79.0198 88.704 76.3837C91.2145 72.9755 91.0433 71.4025 87.8335 68.3774C87.5664 68.1264 87.2848 67.8905 87.0026 67.6557C86.7859 67.4734 86.565 67.2909 86.3527 67.1L83.841 64.8283C81.4269 62.6449 78.9304 60.3871 76.4957 58.1469C74.6458 56.445 72.8029 54.7367 70.9671 53.0214C68.515 50.7396 65.9796 48.3792 63.4604 46.0844C60.6438 43.5148 59.0313 43.5192 56.2808 46.1029C53.6603 48.5638 51.0143 51.0846 48.4556 53.5217C46.1676 55.7011 43.8757 57.8761 41.5799 60.0472C40.5725 60.9839 39.7705 62.1194 39.2244 63.3813C38.6782 64.6431 38.3999 66.0042 38.4069 67.3789C38.4263 69.5371 38.7003 71.6855 39.2231 73.7797C40.5518 79.494 43.4025 84.6177 46.1601 89.5757L46.8425 90.8056C53.9967 103.725 61.7379 114.032 70.5154 122.316C72.1403 123.849 73.6785 125.544 75.1681 127.185C77.154 129.474 79.2945 131.625 81.5747 133.622C88.2543 139.202 95.5858 144.869 103.986 150.95C110.901 155.955 116.986 159.577 123.128 162.349C127.618 164.44 132.506 165.545 137.46 165.587C139.582 165.587 141.699 165.371 143.778 164.944L144.106 164.877C147.262 164.233 150.526 163.567 153.273 161.369C154.636 160.278 156.124 159.276 157.563 158.306C158.318 157.797 159.072 157.289 159.814 156.765C160.479 156.297 161.159 155.845 161.839 155.394C163.518 154.342 165.11 153.157 166.599 151.85C170.719 148.029 169.856 145.383 166.972 142.103C163.82 138.517 160.743 134.751 157.764 131.11C156.579 129.66 155.391 128.211 154.2 126.766C153.264 125.633 152.334 124.496 151.409 123.354C149.622 121.157 147.775 118.885 145.889 116.704C142.306 112.558 140.789 112.425 136.342 115.866C133.267 118.247 130.167 120.691 127.163 123.058C125.273 124.548 123.38 126.036 121.485 127.523C120.916 127.969 120.318 128.384 119.74 128.785L119.378 129.036C118.22 127.828 117.064 126.62 115.912 125.412C104.158 113.126 92.0145 100.428 78.7381 89.1023C78.874 88.94 79.0051 88.7841 79.1302 88.6343C79.5917 88.0809 79.9877 87.6091 80.3669 87.126Z" fill="#1BB6F9"/>
<path d="M145.4 55.2344C134.472 48.087 121.447 44.4931 104.411 43.9278C97.9453 43.6708 87.6744 45.7564 81.8642 47.8229C80.8591 48.1791 79.9116 48.6803 79.0519 49.3106C77.8218 50.2227 77.466 51.4849 78.1008 52.6864C78.813 54.0339 80.0117 53.6803 80.7277 53.4699C80.8669 53.4288 81.0061 53.3877 81.1432 53.3552C89.165 51.484 95.3675 50.6504 101.241 50.6504H101.324C107.772 50.6886 114.195 51.4483 120.474 52.9157C135.388 56.2925 147.036 63.4496 156.082 74.7966C164.234 85.021 167.243 96.6199 165.283 110.256C164.814 113.591 163.907 116.851 162.586 119.951C161.687 122.06 161.578 123.826 162.241 125.499C162.383 125.964 162.626 126.393 162.953 126.754C163.279 127.116 163.682 127.401 164.131 127.59C164.396 127.683 164.677 127.73 164.958 127.73C165.595 127.709 166.216 127.522 166.759 127.189C168.289 126.317 169.383 124.94 170.203 122.856C175.15 110.272 175.409 97.842 170.971 85.9119C166.421 73.6762 157.818 63.356 145.4 55.2344Z" fill="#1BB6F9"/>
<path d="M143.09 106.31C143.648 107.068 144.506 108.005 145.791 108.005C146.014 108.004 146.236 107.978 146.452 107.927C148.09 107.542 148.387 105.936 148.53 105.164C149.2 101.484 148.732 97.6866 147.187 94.2785C145.952 91.454 144.755 88.9935 143.527 86.7561C139.973 80.2763 136.219 75.7922 131.713 72.6448C122.462 66.1818 114.597 63.081 106.211 62.5893C102.203 62.355 99.0134 62.864 96.1762 64.1926C94.3444 65.0511 94.3926 66.3372 94.5843 67.0275C94.9927 68.4978 96.3718 68.441 97.1956 68.4047C97.8039 68.3793 98.4512 68.3253 99.1743 68.2425C100.267 68.1149 101.358 67.9779 102.45 67.8405L103.808 67.6714C108.125 67.719 112.564 68.8071 117.773 71.0911C127.047 75.1587 133.457 80.875 137.369 88.565C138.013 89.8287 138.611 91.148 139.191 92.4242C139.593 93.3114 139.996 94.1992 140.417 95.0778C141.497 97.1278 141.99 99.4355 141.839 101.748C141.671 103.371 142.117 104.999 143.09 106.31Z" fill="#1BB6F9"/>
</g>
<g clip-path="url(#clip1_5966_13451)">
<path d="M68.6435 77.0762C69.4188 76.0844 70.1973 75.0953 70.9791 74.1093C72.9745 71.5829 75.0371 68.97 76.9806 66.3339C79.4911 62.9257 79.3199 61.3527 76.1101 58.3276C75.8431 58.0766 75.5614 57.8407 75.2792 57.6059C75.0625 57.4236 74.8416 57.2411 74.6293 57.0502L72.1176 54.7785C69.7035 52.5951 67.207 50.3373 64.7723 48.0971C62.9224 46.3952 61.0795 44.6869 59.2437 42.9716C56.7917 40.6898 54.2562 38.3294 51.737 36.0346C48.9204 33.465 47.3079 33.4694 44.5574 36.0531C41.9369 38.514 39.2909 41.0348 36.7322 43.4719C34.4443 45.6513 32.1523 47.8263 29.8565 49.9974C28.8491 50.9341 28.0471 52.0696 27.501 53.3315C26.9548 54.5933 26.6765 55.9544 26.6835 57.3291C26.703 59.4873 26.9769 61.6357 27.4997 63.7299C28.8284 69.4442 31.6791 74.5679 34.4367 79.5259L35.1192 80.7558C42.2733 93.675 50.0145 103.982 58.792 112.266C60.4169 113.799 61.9551 115.495 63.4447 117.135C65.4306 119.424 67.5711 121.575 69.8513 123.572C76.531 129.152 83.8624 134.819 92.2628 140.9C99.1781 145.905 105.262 149.527 111.404 152.299C115.894 154.39 120.782 155.495 125.737 155.538C127.859 155.537 129.976 155.322 132.055 154.894L132.383 154.827C135.539 154.183 138.802 153.517 141.549 151.319C142.913 150.228 144.401 149.226 145.84 148.256C146.594 147.748 147.349 147.239 148.091 146.715C148.755 146.247 149.436 145.796 150.116 145.344C151.795 144.292 153.387 143.108 154.876 141.8C158.996 137.979 158.132 135.333 155.249 132.053C152.096 128.467 149.02 124.701 146.041 121.06C144.855 119.61 143.668 118.162 142.477 116.716C141.541 115.583 140.611 114.446 139.686 113.304C137.898 111.107 136.051 108.835 134.166 106.654C130.583 102.509 129.066 102.376 124.618 105.817C121.544 108.197 118.443 110.642 115.44 113.008C113.549 114.498 111.657 115.986 109.762 117.473C109.192 117.919 108.595 118.334 108.017 118.736L107.655 118.987C106.497 117.778 105.341 116.57 104.188 115.362C92.4345 103.076 80.2911 90.3778 67.0147 79.0525C67.1507 78.8902 67.2817 78.7343 67.4069 78.5845C67.8683 78.0311 68.2643 77.5593 68.6435 77.0762ZM60.9613 80.6897C69.1944 89.5215 77.4227 98.3588 85.6466 107.201L97.2623 119.682C97.7498 120.208 98.2465 120.725 98.7426 121.242C99.5751 122.108 100.436 123.008 101.238 123.922C103.823 126.867 106.802 127.238 111.201 125.158C112.589 124.43 113.885 123.54 115.063 122.507C115.461 122.185 115.858 121.864 116.26 121.555C119.327 119.204 122.38 116.836 125.495 114.424L128.907 111.78L149.764 137.21C148.695 137.955 147.624 138.727 146.583 139.479C143.7 141.648 140.688 143.64 137.564 145.446C135.087 146.807 131.961 147.242 128.972 147.572C122.635 148.271 116.871 147.194 111.83 144.376L110.856 143.83C105.862 141.039 100.697 138.153 95.9602 134.85C89.4203 130.358 83.129 125.516 77.1138 120.344C74.1872 117.704 71.3955 114.919 68.7491 111.998C66.8636 109.986 64.9153 107.906 62.8993 105.958C57.707 100.946 52.8094 94.8868 47.4871 86.8871C42.7634 79.7901 39.1457 72.3507 36.2289 66.0105C35.1202 63.5994 34.0375 60.7326 34.4085 57.7469C34.4825 56.5877 34.8823 55.4732 35.5622 54.5307C38.7867 50.8748 42.1654 47.2397 45.4327 43.725C46.3632 42.7245 47.2931 41.7231 48.2222 40.7206C55.5816 49.0337 63.6143 56.8471 71.2315 64.068C68.7994 67.4013 65.9633 70.4209 62.7877 73.0575C62.5889 73.2198 62.3841 73.374 62.1794 73.5292C61.7778 73.823 61.3924 74.1386 61.0252 74.4743C58.8743 76.51 58.8548 78.4285 60.9613 80.6876V80.6897Z" fill="#111827"/>
<path d="M133.676 45.1846C122.749 38.0372 109.724 34.4433 92.6881 33.878C86.2219 33.621 75.951 35.7066 70.1408 37.7731C69.1357 38.1293 68.1882 38.6305 67.3285 39.2608C66.0984 40.1729 65.7426 41.4351 66.3774 42.6366C67.0897 43.9841 68.2883 43.6305 69.0043 43.4201C69.1435 43.379 69.2827 43.3379 69.4198 43.3054C77.4416 41.4342 83.6442 40.6006 89.5178 40.6006H89.6007C96.0485 40.6388 102.472 41.3985 108.75 42.8659C123.665 46.2427 135.312 53.3998 144.358 64.7468C152.511 74.9712 155.52 86.5701 153.56 100.206C153.09 103.542 152.183 106.801 150.862 109.901C149.964 112.011 149.854 113.776 150.517 115.449C150.66 115.914 150.903 116.343 151.23 116.705C151.556 117.066 151.958 117.351 152.407 117.54C152.673 117.633 152.953 117.68 153.235 117.68C153.872 117.659 154.493 117.472 155.035 117.139C156.565 116.267 157.66 114.891 158.48 112.806C163.427 100.222 163.685 87.7922 159.248 75.8621C154.698 63.6264 146.094 53.3062 133.676 45.1846Z" fill="#111827"/>
<path d="M131.367 96.2603C131.925 97.0177 132.783 97.9552 134.068 97.9552C134.291 97.9547 134.513 97.9282 134.729 97.8768C136.366 97.4927 136.664 95.8865 136.807 95.1146C137.477 91.4338 137.009 87.6368 135.464 84.2287C134.228 81.4042 133.031 78.9437 131.804 76.7063C128.25 70.2265 124.495 65.7424 119.99 62.595C110.739 56.132 102.874 53.0312 94.488 52.5395C90.4798 52.3052 87.29 52.8142 84.4528 54.1428C82.621 55.0013 82.6692 56.2874 82.8609 56.9777C83.2693 58.448 84.6484 58.3912 85.4722 58.3549C86.0805 58.3295 86.7278 58.2755 87.4509 58.1927C88.5434 58.0651 89.6348 57.9281 90.7268 57.7907L92.0847 57.6216C96.4016 57.6692 100.84 58.7573 106.049 61.0413C115.324 65.1089 121.734 70.8252 125.646 78.5152C126.289 79.7789 126.888 81.0982 127.467 82.3744C127.87 83.2616 128.273 84.1494 128.693 85.0279C129.774 87.078 130.266 89.3857 130.116 91.6978C129.948 93.3212 130.394 94.949 131.367 96.2603Z" fill="#111827"/>
</g>
<defs>
<clipPath id="clip0_5966_13451">
<rect width="136.496" height="122.26" fill="white" transform="translate(38.0105 43.7412)"/>
</clipPath>
<clipPath id="clip1_5966_13451">
<rect width="136.496" height="122.26" fill="white" transform="translate(26.2871 33.6914)"/>
</clipPath>
</defs>
</svg>
