<svg width="200" height="200" viewBox="0 0 200 200" fill="none" xmlns="http://www.w3.org/2000/svg">
<path d="M172.561 84.4619C172.796 90.0264 173.038 95.7739 173.34 101.422L173.466 103.755C173.978 113.195 174.507 122.955 173.802 132.586C173.602 135.76 173.242 138.921 172.724 142.058C171.095 151.306 165.373 157.253 155.72 159.734C151.508 160.737 147.189 161.207 142.861 161.133H138.288C114.742 161.133 94.7346 161.016 75.6602 160.768C67.9866 160.752 60.3608 159.553 53.0481 157.216C45.1882 154.643 40.0003 149.602 37.1877 141.804C35.2859 136.533 35.0629 131.303 35.0962 126.884C35.1783 115.809 35.3856 104.553 35.5861 93.6653L35.5876 93.581C35.65 90.2689 35.7098 86.9562 35.7671 83.6427L35.8085 81.1709C35.8719 77.2229 35.9379 73.141 36.1338 69.1277C36.5056 61.5067 40.3163 55.5147 47.4603 51.317C50.9878 49.2448 55.1468 48.1888 60.548 47.993C64.504 47.8491 68.5265 47.8602 72.416 47.8735C73.7098 47.8771 75.0082 47.8801 76.3025 47.8801C83.3739 47.8766 90.4462 47.8746 97.519 47.8746H106.223C106.345 47.8746 106.463 47.9175 106.557 47.9955C110.294 48.04 114.031 48.0827 117.769 48.1235L117.909 48.125C128.365 48.2386 139.173 48.3561 149.803 48.6088C153.834 48.7054 157.079 49.278 159.715 50.3609C167.181 53.4295 171.355 59.3391 171.783 67.451C172.076 72.9697 172.313 78.5819 172.542 84.0147L172.551 84.2129L172.561 84.4619Z" fill="#E6E9ED"/>
<g clip-path="url(#clip0_5966_13520)">
<path d="M164.664 92.7462C164.357 87.0137 164.112 81.179 163.874 75.5371C163.643 70.0427 163.404 64.3611 163.107 58.7752C162.679 50.6633 158.505 44.7537 151.039 41.6851C148.402 40.6023 145.158 40.0296 141.127 39.933C130.45 39.6791 119.592 39.5618 109.092 39.4477C105.355 39.4069 101.618 39.3643 97.8809 39.3197C97.7868 39.2417 97.6687 39.1988 97.5464 39.1988H88.8428C81.7699 39.1988 74.6976 39.2009 67.6263 39.2043C66.332 39.2043 65.0336 39.2014 63.7398 39.1978C59.8502 39.1844 55.8277 39.1733 51.8717 39.3172C46.4705 39.513 42.3115 40.569 38.784 42.6412C31.6401 46.8389 27.8293 52.8309 27.4575 60.452C27.2617 64.4652 27.1957 68.5471 27.1323 72.4951L27.0909 74.9669C27.0336 78.2804 26.9737 81.5931 26.9113 84.9052C26.7104 95.819 26.5022 107.104 26.4199 118.208C26.3867 122.628 26.6096 127.857 28.5115 133.129C31.324 140.926 36.512 145.968 44.3718 148.54C51.6845 150.878 59.3103 152.076 66.984 152.093C86.0583 152.34 106.065 152.457 129.611 152.457H134.185C138.512 152.531 142.832 152.061 147.043 151.059C156.697 148.577 162.418 142.63 164.048 133.383C164.566 130.245 164.926 127.084 165.126 123.91C165.831 114.279 165.302 104.519 164.79 95.079L164.664 92.7462ZM75.4626 143.694C67.2003 143.669 58.3718 143.355 49.7945 141.24C46.3432 140.39 43.8748 139.394 41.9024 138.047L84.4695 98.7047L85.6579 99.9895C86.8423 101.271 88.065 102.593 89.2999 103.904C92.8745 107.698 96.3815 108.009 100.334 104.883C101.952 103.605 103.489 102.159 104.975 100.765C105.537 100.236 106.106 99.7028 106.683 99.1724L148.345 141.434C146.905 142.624 145.164 142.873 143.331 143.136L142.804 143.212C140.834 143.475 138.848 143.597 136.861 143.577L125.207 143.619C108.902 143.68 92.0435 143.744 75.4626 143.694ZM140.51 55.8638C134.276 61.5195 127.831 67.3673 121.685 73.3273C115.551 79.2745 109.538 85.5072 103.722 91.5365C101.315 94.0321 98.8295 96.6089 96.3754 99.1231L44.6066 48.0977C44.9772 47.9986 45.3448 47.8986 45.7096 47.7975C47.121 47.4116 48.4542 47.046 49.816 46.7772C56.5871 45.441 63.5588 45.6227 70.3013 45.801C71.8073 45.8401 73.3128 45.8787 74.8178 45.9034C77.1077 45.9394 79.4385 46.0161 81.6917 46.0906C83.6487 46.1549 85.6722 46.2217 87.6651 46.2612C93.2693 46.3726 98.8735 46.4795 104.478 46.582C116.593 46.8091 129.119 47.0448 141.437 47.3418C143.169 47.4379 144.89 47.6815 146.581 48.0701C147.246 48.2032 147.935 48.3398 148.619 48.459V48.4761C145.925 50.9506 143.173 53.4483 140.509 55.8658L140.51 55.8638ZM53.3199 117.935C48.1279 122.896 42.7651 128.022 37.5792 133.26C35.4253 128.153 34.3089 123.962 33.9765 119.759C33.0561 108.099 33.4386 96.4938 33.9121 85.6063C34.1284 80.6412 34.2148 75.5913 34.2987 70.7074C34.356 67.3875 34.4153 63.9543 34.5145 60.583C34.6168 57.0071 35.8068 54.4979 38.468 52.2803L78.9179 92.2164C70.6833 101.339 61.8569 109.775 53.3169 117.939L53.3199 117.935ZM155.294 132.388C155.105 133.412 154.851 134.424 154.536 135.416C154.422 135.801 154.309 136.186 154.202 136.572L154.039 136.626L111.161 94.6349C125.984 79.2682 140.041 66.1629 154.101 54.5995C154.161 54.8714 154.222 55.136 154.283 55.394C154.533 56.3305 154.7 57.2874 154.78 58.2537C155.254 67.9793 155.641 77.5773 155.924 84.8535C156.191 91.6814 156.418 98.418 156.6 104.878C156.827 113.057 156.853 122.724 155.291 132.39L155.294 132.388Z" fill="#111827"/>
</g>
<defs>
<clipPath id="clip0_5966_13520">
<rect width="139.606" height="113.578" fill="white" transform="translate(26 39)"/>
</clipPath>
</defs>
</svg>
